<?xml version="1.0" encoding="UTF-8"?>
<svg xmlns="http://www.w3.org/2000/svg" viewBox="0 0 1024 1024">
  <metadata id="shape-editing-kit">eyJjb3JuZXJSYWRpdXMiOjAsInBvaW50cyI6W10sImlzRmlsbGVkIjp0cnVlLCJwYXRoRGF0YSI6Ik04OTEuNDY0MDcgNDg5Ljc1MTUxTDg5MS40NjQwNyAzMTEuNzYzNjdDODkxLjQ2NDA3IDIyNS43NTEyIDgyMi4yNDQzNiAxNTYuMDI0MzEgNzM2Ljg1NzUxIDE1Ni4wMjQzMUwzMzkuMjk3ODEgMTU2LjAyNDMxQzI1My45MTA5OCAxNTYuMDI0MzEgMTg0LjY5MTI2IDIyNS43NTEyIDE4NC42OTEyNiAzMTEuNzYzNjdMMTg0LjY5MTI2IDcxMi4yMzYzMUMxODQuNjkxMjYgNzk4LjI0ODc4IDI1My45MTA5OCA4NjcuOTc1NjggMzM5LjI5NzgxIDg2Ny45NzU2OEw1NjAuMTY0MzIgODY3Ljk3NTY4QzU5Ni43NTg2OCA4NjcuOTc1NjggNjI2LjQyNDI3IDgzOC4wOTI3MSA2MjYuNDI0MjcgODAxLjIzMDIzTDYyNi40MjQyNyA3MTIuMjM2MzFDNjI2LjQyNDI3IDYyNi4yMjM4NCA2OTUuNjQzOTcgNTU2LjQ5Njk2IDc4MS4wMzA4MSA1NTYuNDk2OTZMODI1LjIwNDEyIDU1Ni40OTY5NkM4NjEuNzk4NDcgNTU2LjQ5Njk2IDg5MS40NjQwNyA1MjYuNjE0MDEgODkxLjQ2NDA3IDQ4OS43NTE1MVpNODg4LjIyMjgzIDU4MS4xMTUwNUM4NzAuMzUxNTcgNTkzLjY0NjY2IDg0OC42Mjk2MiA2MDAuOTkzOTIgODI1LjIwNDEyIDYwMC45OTM5Mkw3ODEuMDMwODEgNjAwLjk5MzkyQzcyMC4wNDAyMSA2MDAuOTkzOTIgNjcwLjU5NzU2IDY1MC43OTg4NCA2NzAuNTk3NTYgNzEyLjIzNjMxTDY3MC41OTc1NiA4MDEuMjMwMjNDNjcwLjU5NzU2IDgyMC4wMjA2NyA2NjUuOTcyNiA4MzcuNzIyOTggNjU3LjgwNjgxIDg1My4yNDUwNUM3NzguNzc4NDggODE1LjcxNTc4IDg3MC4yMDE5OSA3MTAuMjgwNTEgODg4LjIyMjgzIDU4MS4xMTUwNUw4ODguMjIyODMgNTgxLjExNTA1Wk0zMzkuMjk3ODEgMTExLjUyNzM2TDczNi44NTc1MSAxMTEuNTI3MzZDODQ2LjY0MDU5IDExMS41MjczNiA5MzUuNjM3MzcgMjAxLjE3NjIyIDkzNS42MzczNyAzMTEuNzYzNjdMOTM1LjYzNzM3IDUzNC4yNDg0OUM5MzUuNjM3MzcgNzQzLjEzNTkzIDc2Ny41MzIzNiA5MTIuNDcyNjQgNTYwLjE2NDMyIDkxMi40NzI2NEwzMzkuMjk3ODEgOTEyLjQ3MjY0QzIyOS41MTQ3NCA5MTIuNDcyNjQgMTQwLjUxNzk2IDgyMi44MjM3OCAxNDAuNTE3OTYgNzEyLjIzNjMxTDE0MC41MTc5NiAzMTEuNzYzNjdDMTQwLjUxNzk2IDIwMS4xNzYyMiAyMjkuNTE0NzQgMTExLjUyNzM2IDMzOS4yOTc4MSAxMTEuNTI3MzZaIiwiZnJhbWUiOltbMjEyLDIxMl0sWzYwMCw2MDBdXSwia2luZCI6InBhdGgifQ==</metadata>
  <path d="M891.46407 489.75151L891.46407 311.76367C891.46407 225.7512 822.24436 156.02431 736.85751 156.02431L339.29781 156.02431C253.91098 156.02431 184.69126 225.7512 184.69126 311.76367L184.69126 712.23631C184.69126 798.24878 253.91098 867.97568 339.29781 867.97568L560.16432 867.97568C596.75868 867.97568 626.42427 838.09271 626.42427 801.23023L626.42427 712.23631C626.42427 626.22384 695.64397 556.49696 781.03081 556.49696L825.20412 556.49696C861.79847 556.49696 891.46407 526.61401 891.46407 489.75151ZM888.22283 581.11505C870.35157 593.64666 848.62962 600.99392 825.20412 600.99392L781.03081 600.99392C720.04021 600.99392 670.59756 650.79884 670.59756 712.23631L670.59756 801.23023C670.59756 820.02067 665.9726 837.72298 657.80681 853.24505C778.77848 815.71578 870.20199 710.28051 888.22283 581.11505L888.22283 581.11505ZM339.29781 111.52736L736.85751 111.52736C846.64059 111.52736 935.63737 201.17622 935.63737 311.76367L935.63737 534.24849C935.63737 743.13593 767.53236 912.47264 560.16432 912.47264L339.29781 912.47264C229.51474 912.47264 140.51796 822.82378 140.51796 712.23631L140.51796 311.76367C140.51796 201.17622 229.51474 111.52736 339.29781 111.52736Z" fill="#000000" fill-rule="evenodd"/>
</svg>